# xmcd
#
# Track frame offsets: 
#        150
#        21585
#        39676
#        55564
#        72332
#        88971
#        106535
#        124931
#        143865
#        160890
#
# Disc length: 2381 seconds
#
# Revision: 0
# Processed by: cddbd v1.5.1PL0 Copyright (c) Steve Scherf et al.
# Submitted via: ExactAudioCopy v0.95a5
#
DISCID=89094b0a
DTITLE=T and Masson - Smoke my blues
DYEAR=2004
DGENRE=Blues
TTITLE0=Boogie moogie
TTITLE1=My baby is gone
TTITLE2=Little big train
TTITLE3=Do you believe
TTITLE4=Lord have mercy
TTITLE5=Voodoo lounge
TTITLE6=Across the delta
TTITLE7=Standing in the shadow of love
TTITLE8=Moving on
TTITLE9=Till the sun goes down
EXTD=
EXTT0=
EXTT1=
EXTT2=
EXTT3=
EXTT4=
EXTT5=
EXTT6=
EXTT7=
EXTT8=
EXTT9=
PLAYORDER=
